<svg xmlns="http://www.w3.org/2000/svg" xmlns:xlink="http://www.w3.org/1999/xlink" width="160" zoomAndPan="magnify" viewBox="0 0 120 37.5" height="50" preserveAspectRatio="xMidYMid meet" version="1.0"><defs><filter x="0%" y="0%" width="100%" height="100%" id="0735bacbc0"><feColorMatrix values="0 0 0 0 1 0 0 0 0 1 0 0 0 0 1 0 0 0 1 0" color-interpolation-filters="sRGB"/></filter><g/><mask id="c91ba4daf9"><g filter="url(#0735bacbc0)"><rect x="-12" width="144" fill="#000000" y="-3.75" height="45" fill-opacity="0.6"/></g></mask><clipPath id="cb75e19e44"><path d="M 18 1.09375 L 54 1.09375 L 54 17 L 18 17 Z M 18 1.09375 " clip-rule="nonzero"/></clipPath><clipPath id="02187c54f2"><path d="M 0.34375 9 L 9 9 L 9 17 L 0.34375 17 Z M 0.34375 9 " clip-rule="nonzero"/></clipPath><clipPath id="e266e299c4"><path d="M 63 9 L 71.867188 9 L 71.867188 17 L 63 17 Z M 63 9 " clip-rule="nonzero"/></clipPath><clipPath id="f328f05c71"><path d="M 44 10 L 64 10 L 64 18.855469 L 44 18.855469 Z M 44 10 " clip-rule="nonzero"/></clipPath><clipPath id="92e4bf08b0"><path d="M 8 11 L 28 11 L 28 18.855469 L 8 18.855469 Z M 8 11 " clip-rule="nonzero"/></clipPath><clipPath id="9faa2de60f"><rect x="0" width="72" y="0" height="19"/></clipPath><mask id="0943d223be"><g filter="url(#0735bacbc0)"><rect x="-12" width="144" fill="#000000" y="-3.75" height="45" fill-opacity="0.8"/></g></mask><clipPath id="89133f4f98"><path d="M 0.210938 0.132812 L 16 0.132812 L 16 1.078125 L 0.210938 1.078125 Z M 0.210938 0.132812 " clip-rule="nonzero"/></clipPath><clipPath id="e974d2cfeb"><rect x="0" width="17" y="0" height="2"/></clipPath><mask id="c1f5f7ed8c"><g filter="url(#0735bacbc0)"><rect x="-12" width="144" fill="#000000" y="-3.75" height="45" fill-opacity="0.8"/></g></mask><clipPath id="232b60cb47"><path d="M 0.421875 1 L 17 1 L 17 1.84375 L 0.421875 1.84375 Z M 0.421875 1 " clip-rule="nonzero"/></clipPath><clipPath id="4ba98bec60"><rect x="0" width="17" y="0" height="2"/></clipPath></defs><g mask="url(#c91ba4daf9)"><g transform="matrix(1, 0, 0, 1, 22, -0.000000000000001443)"><g clip-path="url(#9faa2de60f)"><g clip-path="url(#cb75e19e44)"><path fill="#545454" d="M 34.71875 8.554688 C 34.71875 8.960938 34.949219 9.601562 35.445312 10.242188 C 35.503906 10.328125 35.5625 10.386719 35.648438 10.472656 L 35.648438 11.433594 C 35.328125 11.261719 34.628906 10.882812 33.816406 10.707031 C 33.929688 11.113281 33.785156 11.464844 33.320312 11.464844 C 32.972656 11.464844 32.710938 11.261719 32.359375 11.261719 C 31.984375 11.261719 31.75 11.464844 31.75 11.695312 C 31.75 11.929688 31.78125 12.191406 31.953125 12.480469 C 31.894531 12.480469 31.140625 12.21875 31.140625 11.695312 C 31.140625 11.203125 31.371094 10.851562 31.722656 10.648438 C 29.828125 10.910156 28.316406 11.8125 26.949219 12.800781 C 27.007812 13.238281 27.152344 13.644531 27.355469 13.964844 C 27.414062 13.296875 27.792969 12.511719 28.695312 12.511719 C 29.453125 12.511719 30.207031 12.742188 30.382812 13.878906 C 30.179688 13.789062 29.945312 13.703125 29.625 13.703125 C 29.363281 13.703125 29.074219 14.082031 29.074219 14.371094 C 29.074219 14.925781 29.597656 15.476562 30.46875 15.476562 C 32.710938 15.476562 33.351562 13.789062 33.320312 12.773438 L 33.671875 12.773438 C 33.671875 15.101562 31.984375 16.089844 30.46875 16.089844 C 28.230469 16.089844 26.921875 14.839844 26.515625 13.121094 C 24.59375 14.546875 22.90625 16.03125 20.78125 16.03125 C 19.851562 16.03125 18.976562 15.683594 18.976562 14.632812 C 18.976562 13.585938 19.617188 13.355469 20.140625 13.355469 C 20.753906 13.355469 21.21875 13.789062 21.21875 14.199219 C 21.21875 14.691406 20.722656 14.894531 20.433594 14.78125 C 20.578125 14.632812 20.636719 14.488281 20.636719 14.226562 C 20.636719 13.996094 20.316406 13.703125 20.027344 13.703125 C 19.503906 13.703125 19.238281 14.109375 19.238281 14.632812 C 19.238281 15.304688 19.734375 15.625 20.433594 15.625 C 21.917969 15.625 22.410156 12.597656 23.921875 12.597656 C 24.652344 12.597656 24.796875 13.152344 24.796875 13.355469 C 24.796875 13.53125 24.738281 13.964844 24.738281 13.964844 C 25.292969 13.585938 25.84375 13.152344 26.453125 12.683594 C 26.425781 12.453125 26.398438 12.21875 26.398438 11.957031 C 26.398438 11.785156 26.398438 11.578125 26.425781 11.40625 C 25.085938 11.550781 24.476562 10.589844 24.476562 9.949219 C 24.476562 9.3125 24.882812 8.84375 25.523438 8.84375 C 25.929688 8.84375 26.25 9.222656 26.25 9.601562 C 26.25 9.894531 26.136719 10.097656 25.785156 10.097656 C 25.523438 10.097656 25.378906 9.863281 25.378906 9.71875 C 25.378906 9.367188 25.699219 9.398438 25.699219 9.28125 C 25.613281 9.164062 25.464844 9.222656 25.347656 9.222656 C 25.117188 9.222656 24.769531 9.484375 24.769531 9.894531 C 24.769531 10.734375 25.613281 11.144531 26.484375 11.085938 C 26.890625 8.960938 28.8125 7.738281 30.671875 7.738281 C 32.1875 7.738281 33.4375 8.351562 34.542969 9.339844 C 34.398438 9.105469 34.28125 8.789062 34.28125 8.410156 C 34.28125 7.941406 34.457031 7.566406 34.863281 7.566406 C 35.386719 7.566406 35.648438 7.914062 35.765625 8.292969 C 35.242188 8.117188 34.71875 8.207031 34.71875 8.554688 Z M 23.574219 14.257812 C 23.253906 14.257812 22.875 14.808594 22.441406 15.421875 C 22.730469 15.273438 23.457031 14.898438 23.835938 14.578125 C 23.835938 14.429688 23.808594 14.257812 23.574219 14.257812 Z M 27.183594 11.261719 C 27.007812 11.636719 26.921875 12.015625 26.921875 12.335938 C 27.882812 11.667969 28.925781 10.996094 30.152344 10.5625 C 29.191406 10.734375 28.054688 11.027344 27.183594 11.261719 Z M 31.429688 8.207031 C 31.632812 8.4375 31.660156 8.46875 31.660156 8.730469 C 31.660156 9.164062 31.429688 9.457031 30.761719 9.457031 C 30.441406 9.457031 30.121094 9.339844 29.859375 9.339844 C 28.753906 9.339844 27.910156 10.066406 27.414062 10.851562 C 28.550781 10.53125 30.179688 10.066406 32.128906 10.066406 C 32.011719 9.980469 31.953125 9.835938 31.953125 9.628906 C 31.953125 9.367188 32.070312 9.164062 32.417969 9.019531 C 32.390625 9.542969 32.710938 9.746094 33.351562 9.746094 C 33.84375 9.746094 33.992188 9.921875 33.992188 10.15625 L 33.929688 10.328125 C 34.542969 10.503906 35.210938 10.734375 35.503906 10.851562 C 34.105469 9.195312 32.769531 8.234375 31.429688 8.207031 Z M 35.503906 6.34375 C 35.445312 6.109375 35.269531 5.585938 34.980469 5.585938 C 34.308594 5.585938 33.699219 6.050781 33.03125 6.050781 C 32.535156 6.050781 31.894531 5.675781 31.894531 5.121094 C 31.894531 4.886719 32.070312 4.742188 32.300781 4.714844 C 32.273438 4.800781 32.242188 4.886719 32.242188 4.976562 C 32.242188 5.152344 32.359375 5.296875 32.535156 5.296875 C 33.117188 5.296875 33.582031 4.859375 34.164062 4.859375 C 34.339844 4.859375 34.515625 4.917969 34.6875 4.976562 C 34.339844 4.714844 33.84375 4.453125 33.40625 4.367188 C 31.953125 4.132812 30.0625 3.347656 30.265625 1.832031 C 30.324219 1.339844 30.730469 1.105469 31.082031 1.164062 C 30.90625 1.3125 30.730469 1.425781 30.730469 1.660156 C 30.730469 2.503906 31.808594 2.53125 32.417969 2.53125 C 33.058594 2.53125 34.398438 2.386719 34.398438 3.40625 C 34.398438 3.753906 34.105469 4.015625 33.785156 4.074219 C 34.660156 4.511719 35.53125 5.09375 35.734375 6.109375 Z M 51.386719 16.03125 C 49.261719 16.03125 47.578125 14.546875 45.65625 13.121094 C 45.277344 14.839844 43.941406 16.089844 41.699219 16.089844 C 40.214844 16.089844 38.5 15.101562 38.5 12.773438 L 38.847656 12.773438 C 38.847656 13.789062 39.488281 15.476562 41.699219 15.476562 C 42.574219 15.476562 43.09375 14.925781 43.09375 14.371094 C 43.09375 14.082031 42.804688 13.703125 42.542969 13.703125 C 42.222656 13.703125 41.992188 13.789062 41.785156 13.878906 C 41.960938 12.742188 42.71875 12.511719 43.472656 12.511719 C 44.40625 12.511719 44.753906 13.296875 44.8125 13.964844 C 45.015625 13.644531 45.160156 13.238281 45.21875 12.800781 C 43.851562 11.8125 42.339844 10.910156 40.449219 10.648438 C 40.796875 10.851562 41.03125 11.203125 41.03125 11.695312 C 41.03125 12.21875 40.273438 12.480469 40.214844 12.480469 C 40.390625 12.191406 40.417969 11.929688 40.417969 11.695312 C 40.417969 11.464844 40.214844 11.261719 39.808594 11.261719 C 39.457031 11.261719 39.199219 11.464844 38.847656 11.464844 C 38.382812 11.464844 38.238281 11.113281 38.355469 10.707031 C 37.539062 10.882812 36.839844 11.261719 36.523438 11.433594 L 36.523438 10.476562 L 36.753906 10.242188 C 37.246094 9.601562 37.453125 8.960938 37.453125 8.554688 C 37.453125 8.207031 36.929688 8.117188 36.402344 8.292969 C 36.523438 7.914062 36.78125 7.566406 37.304688 7.566406 C 37.714844 7.566406 37.886719 7.945312 37.886719 8.410156 C 37.886719 8.789062 37.773438 9.105469 37.625 9.339844 C 38.761719 8.351562 39.980469 7.738281 41.496094 7.738281 C 43.386719 7.738281 45.277344 8.960938 45.683594 11.085938 C 46.558594 11.144531 47.402344 10.734375 47.402344 9.894531 C 47.402344 9.484375 47.082031 9.222656 46.820312 9.222656 C 46.703125 9.222656 46.558594 9.164062 46.46875 9.28125 C 46.46875 9.398438 46.789062 9.371094 46.789062 9.71875 C 46.789062 9.863281 46.675781 10.097656 46.382812 10.097656 C 46.035156 10.097656 45.917969 9.894531 45.917969 9.601562 C 45.917969 9.222656 46.238281 8.84375 46.644531 8.84375 C 47.285156 8.84375 47.691406 9.3125 47.691406 9.953125 C 47.691406 10.589844 47.082031 11.550781 45.742188 11.40625 C 45.773438 11.578125 45.773438 11.785156 45.773438 11.957031 C 45.773438 12.21875 45.773438 12.453125 45.742188 12.6875 C 46.324219 13.152344 46.90625 13.585938 47.429688 13.964844 C 47.429688 13.964844 47.371094 13.53125 47.371094 13.355469 C 47.371094 13.152344 47.546875 12.597656 48.246094 12.597656 C 49.757812 12.597656 50.253906 15.625 51.734375 15.625 C 52.433594 15.625 52.929688 15.304688 52.929688 14.632812 C 52.929688 14.109375 52.667969 13.703125 52.144531 13.703125 C 51.851562 13.703125 51.53125 13.996094 51.53125 14.226562 C 51.53125 14.488281 51.589844 14.632812 51.734375 14.78125 C 51.445312 14.898438 50.949219 14.691406 50.949219 14.199219 C 50.949219 13.789062 51.445312 13.355469 52.027344 13.355469 C 52.550781 13.355469 53.191406 13.585938 53.191406 14.632812 C 53.191406 15.679688 52.320312 16.03125 51.386719 16.03125 Z M 38.761719 4.367188 C 38.324219 4.453125 37.832031 4.714844 37.480469 4.976562 C 37.65625 4.917969 37.832031 4.859375 38.003906 4.859375 C 38.585938 4.859375 39.050781 5.296875 39.632812 5.296875 C 39.835938 5.296875 39.925781 5.152344 39.925781 4.976562 C 39.925781 4.886719 39.925781 4.800781 39.867188 4.714844 C 40.101562 4.742188 40.273438 4.886719 40.273438 5.121094 C 40.273438 5.675781 39.664062 6.050781 39.140625 6.050781 C 38.46875 6.050781 37.886719 5.585938 37.191406 5.585938 C 36.898438 5.585938 36.726562 6.109375 36.667969 6.34375 L 36.433594 6.109375 C 36.636719 5.09375 37.511719 4.511719 38.382812 4.074219 C 38.0625 4.015625 37.773438 3.753906 37.773438 3.40625 C 37.773438 2.386719 39.140625 2.53125 39.75 2.53125 C 40.363281 2.53125 41.4375 2.503906 41.4375 1.660156 C 41.4375 1.425781 41.292969 1.3125 41.089844 1.164062 C 41.4375 1.105469 41.84375 1.339844 41.902344 1.832031 C 42.105469 3.347656 40.214844 4.132812 38.761719 4.367188 Z M 42.308594 9.339844 C 42.046875 9.339844 41.730469 9.457031 41.410156 9.457031 C 40.769531 9.457031 40.507812 9.164062 40.507812 8.730469 C 40.507812 8.46875 40.566406 8.4375 40.738281 8.207031 C 39.402344 8.234375 38.0625 9.195312 36.667969 10.851562 C 36.957031 10.734375 37.625 10.503906 38.238281 10.328125 L 38.179688 10.15625 C 38.179688 9.921875 38.324219 9.746094 38.820312 9.746094 C 39.457031 9.746094 39.777344 9.542969 39.75 9.019531 C 40.101562 9.164062 40.214844 9.367188 40.214844 9.628906 C 40.214844 9.835938 40.15625 9.980469 40.039062 10.066406 C 41.992188 10.066406 43.617188 10.53125 44.78125 10.851562 C 44.257812 10.066406 43.414062 9.339844 42.308594 9.339844 Z M 44.984375 11.261719 C 44.113281 11.027344 42.980469 10.734375 42.019531 10.5625 C 43.242188 10.996094 44.289062 11.667969 45.25 12.335938 C 45.25 12.015625 45.160156 11.636719 44.984375 11.261719 Z M 48.59375 14.257812 C 48.363281 14.257812 48.332031 14.429688 48.332031 14.578125 C 48.710938 14.898438 49.4375 15.273438 49.726562 15.421875 C 49.292969 14.808594 48.914062 14.257812 48.59375 14.257812 Z M 48.59375 14.257812 " fill-opacity="1" fill-rule="nonzero"/></g><g clip-path="url(#02187c54f2)"><path fill="#545454" d="M 7.945312 16.777344 C 7.863281 16.453125 7.621094 15.722656 7.214844 15.722656 C 6.28125 15.722656 5.425781 16.371094 4.492188 16.371094 C 3.800781 16.371094 2.902344 15.84375 2.902344 15.070312 C 2.902344 14.746094 3.148438 14.542969 3.472656 14.5 C 3.433594 14.625 3.390625 14.746094 3.390625 14.867188 C 3.390625 15.113281 3.554688 15.316406 3.800781 15.316406 C 4.609375 15.316406 5.261719 14.703125 6.074219 14.703125 C 6.320312 14.703125 6.5625 14.785156 6.808594 14.867188 C 6.320312 14.5 5.628906 14.136719 5.019531 14.015625 C 2.984375 13.6875 0.34375 12.589844 0.625 10.476562 C 0.707031 9.785156 1.277344 9.460938 1.765625 9.539062 C 1.519531 9.742188 1.277344 9.90625 1.277344 10.230469 C 1.277344 11.410156 2.78125 11.453125 3.636719 11.453125 C 4.53125 11.453125 6.402344 11.246094 6.402344 12.671875 C 6.402344 13.160156 5.996094 13.527344 5.546875 13.605469 C 6.769531 14.214844 7.988281 15.03125 8.273438 16.453125 Z M 7.945312 16.777344 " fill-opacity="1" fill-rule="nonzero"/></g><g clip-path="url(#e266e299c4)"><path fill="#545454" d="M 63.972656 16.453125 C 64.257812 15.03125 65.476562 14.214844 66.695312 13.605469 C 66.25 13.527344 65.84375 13.160156 65.84375 12.671875 C 65.84375 11.246094 67.714844 11.453125 68.609375 11.453125 C 69.464844 11.453125 70.96875 11.410156 70.96875 10.230469 C 70.96875 9.90625 70.722656 9.742188 70.480469 9.539062 C 70.96875 9.460938 71.539062 9.785156 71.617188 10.476562 C 71.902344 12.589844 69.261719 13.6875 67.226562 14.015625 C 66.617188 14.136719 65.925781 14.5 65.4375 14.867188 C 65.679688 14.785156 65.925781 14.703125 66.167969 14.703125 C 66.980469 14.703125 67.632812 15.316406 68.445312 15.316406 C 68.691406 15.316406 68.855469 15.113281 68.855469 14.867188 C 68.855469 14.746094 68.8125 14.625 68.773438 14.5 C 69.097656 14.542969 69.34375 14.746094 69.34375 15.070312 C 69.34375 15.84375 68.445312 16.371094 67.753906 16.371094 C 66.820312 16.371094 65.964844 15.722656 65.03125 15.722656 C 64.625 15.722656 64.382812 16.453125 64.296875 16.777344 Z M 63.972656 16.453125 " fill-opacity="1" fill-rule="nonzero"/></g><g clip-path="url(#f328f05c71)"><path fill="#545454" d="M 62.15625 17.429688 C 61.269531 18.078125 59.820312 18.925781 55.019531 18.445312 C 53.710938 18.3125 52.410156 18.113281 51.089844 17.914062 C 50.265625 17.796875 49.425781 17.6875 48.589844 17.605469 C 48 17.546875 46.511719 17.394531 45.957031 17.453125 C 45.378906 17.511719 45.15625 17.710938 45.144531 17.820312 C 45.144531 17.84375 45.132812 17.890625 45.15625 17.914062 C 45.167969 17.984375 45.214844 18.03125 45.214844 18.078125 C 45.203125 18.183594 44.933594 18.289062 44.683594 18.265625 C 44.519531 18.253906 44.355469 18.148438 44.367188 18.007812 C 44.390625 17.878906 44.800781 17.371094 45.792969 17.230469 C 46.59375 17.125 47.515625 17.230469 50.664062 17.535156 C 54.582031 17.925781 57.214844 17.9375 59.207031 17.265625 C 60.667969 16.78125 62.886719 15.53125 63.097656 13.75 C 63.300781 12.15625 61.894531 11.390625 60.714844 11.273438 C 58.273438 11.035156 55.820312 13.183594 55.632812 14.691406 C 55.527344 15.53125 56.246094 15.992188 57.011719 16.0625 C 57.828125 16.144531 58.488281 15.8125 59.066406 15.390625 C 60.101562 14.621094 60.222656 14.066406 60.257812 13.808594 C 60.292969 13.535156 60.246094 13.3125 60.113281 13.148438 C 60.007812 13.019531 59.925781 13.007812 59.785156 12.996094 C 59.726562 12.996094 59.632812 12.980469 59.644531 12.886719 C 59.65625 12.757812 59.785156 12.769531 59.832031 12.78125 C 60.222656 12.816406 60.714844 13.289062 60.621094 14.066406 C 60.457031 15.355469 58.828125 16.449219 57.082031 16.273438 C 55.65625 16.132812 55.007812 15.082031 55.136719 14.078125 C 55.347656 12.332031 57.898438 10.632812 60.339844 10.882812 C 62.535156 11.09375 64.007812 12.851562 63.773438 14.835938 C 63.628906 15.953125 63.015625 16.792969 62.15625 17.429688 Z M 62.15625 17.429688 " fill-opacity="1" fill-rule="nonzero"/></g><g clip-path="url(#92e4bf08b0)"><path fill="#545454" d="M 8.550781 15.003906 C 8.316406 13.023438 9.789062 11.265625 11.984375 11.054688 C 14.425781 10.804688 16.972656 12.503906 17.1875 14.25 C 17.316406 15.253906 16.667969 16.304688 15.238281 16.445312 C 13.492188 16.621094 11.867188 15.523438 11.699219 14.238281 C 11.605469 13.460938 12.101562 12.988281 12.492188 12.953125 C 12.539062 12.941406 12.667969 12.929688 12.679688 13.058594 C 12.691406 13.152344 12.597656 13.164062 12.539062 13.164062 C 12.398438 13.175781 12.3125 13.1875 12.207031 13.320312 C 12.078125 13.484375 12.03125 13.707031 12.066406 13.980469 C 12.101562 14.238281 12.21875 14.792969 13.257812 15.558594 C 13.835938 15.984375 14.496094 16.316406 15.308594 16.234375 C 16.078125 16.160156 16.796875 15.703125 16.691406 14.863281 C 16.5 13.355469 14.046875 11.207031 11.605469 11.441406 C 10.425781 11.5625 9.023438 12.328125 9.222656 13.921875 C 9.433594 15.703125 11.652344 16.953125 13.117188 17.4375 C 15.109375 18.109375 17.742188 18.097656 21.65625 17.707031 C 24.808594 17.402344 25.726562 17.292969 26.53125 17.402344 C 27.519531 17.542969 27.933594 18.050781 27.957031 18.179688 C 27.96875 18.320312 27.804688 18.425781 27.636719 18.4375 C 27.390625 18.460938 27.121094 18.355469 27.105469 18.25 C 27.105469 18.203125 27.15625 18.15625 27.167969 18.085938 C 27.191406 18.0625 27.179688 18.015625 27.179688 17.992188 C 27.167969 17.882812 26.941406 17.683594 26.363281 17.625 C 25.808594 17.566406 24.324219 17.71875 23.734375 17.777344 C 22.894531 17.859375 22.058594 17.96875 21.234375 18.085938 C 19.910156 18.285156 18.613281 18.484375 17.304688 18.617188 C 12.503906 19.097656 11.050781 18.25 10.167969 17.601562 C 9.304688 16.964844 8.691406 16.125 8.550781 15.003906 Z M 8.550781 15.003906 " fill-opacity="1" fill-rule="nonzero"/></g></g></g></g><g fill="#000000" fill-opacity="1"><g transform="translate(23.523248, 25.403416)"><g><path d="M 8.359375 -7.5 C 8.359375 -7.070312 8.269531 -6.65625 8.09375 -6.25 C 7.914062 -5.851562 7.648438 -5.5 7.296875 -5.1875 C 6.953125 -4.882812 6.523438 -4.640625 6.015625 -4.453125 C 5.503906 -4.273438 4.921875 -4.1875 4.265625 -4.1875 C 4.003906 -4.1875 3.722656 -4.195312 3.421875 -4.21875 C 3.128906 -4.238281 2.832031 -4.285156 2.53125 -4.359375 L 2.53125 0 L 1.296875 0 L 1.296875 -10.4375 L 1.421875 -10.4375 C 1.890625 -10.445312 2.390625 -10.472656 2.921875 -10.515625 C 3.460938 -10.566406 3.957031 -10.59375 4.40625 -10.59375 C 5.164062 -10.59375 5.800781 -10.5 6.3125 -10.3125 C 6.820312 -10.125 7.226562 -9.882812 7.53125 -9.59375 C 7.832031 -9.300781 8.046875 -8.96875 8.171875 -8.59375 C 8.296875 -8.226562 8.359375 -7.863281 8.359375 -7.5 Z M 7.015625 -7.5 C 7.015625 -8.46875 6.765625 -9.195312 6.265625 -9.6875 C 5.773438 -10.175781 5.078125 -10.421875 4.171875 -10.421875 C 3.898438 -10.421875 3.625 -10.398438 3.34375 -10.359375 C 3.070312 -10.328125 2.800781 -10.273438 2.53125 -10.203125 L 2.53125 -4.515625 C 2.832031 -4.441406 3.125 -4.394531 3.40625 -4.375 C 3.6875 -4.363281 3.953125 -4.359375 4.203125 -4.359375 C 5.035156 -4.359375 5.710938 -4.625 6.234375 -5.15625 C 6.753906 -5.695312 7.015625 -6.476562 7.015625 -7.5 Z M 7.015625 -7.5 "/></g></g></g><g fill="#000000" fill-opacity="1"><g transform="translate(34.47609, 25.403416)"><g><path d="M 9.203125 -0.140625 C 9.296875 -0.140625 9.378906 -0.164062 9.453125 -0.21875 C 9.523438 -0.28125 9.582031 -0.351562 9.625 -0.4375 C 9.664062 -0.53125 9.695312 -0.625 9.71875 -0.71875 C 9.75 -0.820312 9.765625 -0.925781 9.765625 -1.03125 L 9.9375 -1.03125 C 9.9375 -0.914062 9.921875 -0.785156 9.890625 -0.640625 C 9.867188 -0.503906 9.8125 -0.375 9.71875 -0.25 C 9.632812 -0.125 9.507812 -0.0195312 9.34375 0.0625 C 9.1875 0.15625 8.96875 0.203125 8.6875 0.203125 C 8.382812 0.203125 8.109375 0.128906 7.859375 -0.015625 C 7.617188 -0.160156 7.390625 -0.363281 7.171875 -0.625 C 6.960938 -0.894531 6.757812 -1.21875 6.5625 -1.59375 C 6.375 -1.96875 6.179688 -2.378906 5.984375 -2.828125 C 5.828125 -3.203125 5.628906 -3.550781 5.390625 -3.875 C 5.160156 -4.195312 4.898438 -4.46875 4.609375 -4.6875 C 4.316406 -4.914062 4 -5.09375 3.65625 -5.21875 C 3.3125 -5.34375 2.9375 -5.394531 2.53125 -5.375 L 2.53125 0 L 1.296875 0 L 1.296875 -10.4375 L 1.5 -10.4375 C 1.988281 -10.425781 2.507812 -10.445312 3.0625 -10.5 C 3.613281 -10.5625 4.128906 -10.59375 4.609375 -10.59375 C 5.441406 -10.59375 6.113281 -10.507812 6.625 -10.34375 C 7.144531 -10.1875 7.546875 -9.976562 7.828125 -9.71875 C 8.117188 -9.46875 8.3125 -9.1875 8.40625 -8.875 C 8.507812 -8.5625 8.5625 -8.257812 8.5625 -7.96875 C 8.5625 -7.519531 8.453125 -7.117188 8.234375 -6.765625 C 8.023438 -6.421875 7.738281 -6.128906 7.375 -5.890625 C 7.019531 -5.660156 6.597656 -5.484375 6.109375 -5.359375 C 5.628906 -5.234375 5.113281 -5.171875 4.5625 -5.171875 C 5.351562 -4.921875 5.988281 -4.566406 6.46875 -4.109375 C 6.945312 -3.660156 7.328125 -3.179688 7.609375 -2.671875 C 7.753906 -2.421875 7.894531 -2.144531 8.03125 -1.84375 C 8.175781 -1.539062 8.300781 -1.269531 8.40625 -1.03125 C 8.4375 -0.9375 8.476562 -0.835938 8.53125 -0.734375 C 8.582031 -0.640625 8.640625 -0.546875 8.703125 -0.453125 C 8.773438 -0.359375 8.847656 -0.28125 8.921875 -0.21875 C 8.992188 -0.164062 9.085938 -0.140625 9.203125 -0.140625 Z M 7.21875 -7.890625 C 7.21875 -8.742188 6.96875 -9.378906 6.46875 -9.796875 C 5.96875 -10.210938 5.296875 -10.421875 4.453125 -10.421875 C 4.078125 -10.421875 3.71875 -10.390625 3.375 -10.328125 C 3.03125 -10.273438 2.75 -10.222656 2.53125 -10.171875 L 2.53125 -5.546875 L 3.296875 -5.46875 C 3.484375 -5.445312 3.675781 -5.425781 3.875 -5.40625 C 4.082031 -5.394531 4.28125 -5.390625 4.46875 -5.390625 C 4.882812 -5.390625 5.257812 -5.453125 5.59375 -5.578125 C 5.9375 -5.703125 6.226562 -5.875 6.46875 -6.09375 C 6.707031 -6.3125 6.890625 -6.570312 7.015625 -6.875 C 7.148438 -7.1875 7.21875 -7.523438 7.21875 -7.890625 Z M 7.21875 -7.890625 "/></g></g></g><g fill="#000000" fill-opacity="1"><g transform="translate(46.496795, 25.403416)"><g><path d="M 2.53125 0 L 1.296875 0 L 1.296875 -10.4375 L 2.53125 -10.4375 Z M 2.53125 0 "/></g></g></g><g fill="#000000" fill-opacity="1"><g transform="translate(52.341191, 25.403416)"><g><path d="M 5.609375 -1.296875 C 6.179688 -2.640625 6.671875 -3.796875 7.078125 -4.765625 C 7.484375 -5.734375 7.820312 -6.566406 8.09375 -7.265625 C 8.300781 -7.773438 8.472656 -8.207031 8.609375 -8.5625 C 8.742188 -8.914062 8.851562 -9.210938 8.9375 -9.453125 C 9.03125 -9.691406 9.097656 -9.890625 9.140625 -10.046875 C 9.191406 -10.203125 9.234375 -10.332031 9.265625 -10.4375 L 9.8125 -10.4375 C 9.78125 -10.363281 9.722656 -10.238281 9.640625 -10.0625 C 9.554688 -9.894531 9.460938 -9.710938 9.359375 -9.515625 C 9.265625 -9.316406 9.171875 -9.113281 9.078125 -8.90625 C 8.992188 -8.707031 8.921875 -8.546875 8.859375 -8.421875 C 8.796875 -8.265625 8.722656 -8.097656 8.640625 -7.921875 C 8.566406 -7.753906 8.472656 -7.535156 8.359375 -7.265625 C 8.253906 -7.003906 8.117188 -6.675781 7.953125 -6.28125 C 7.785156 -5.894531 7.578125 -5.40625 7.328125 -4.8125 C 7.085938 -4.226562 6.796875 -3.523438 6.453125 -2.703125 C 6.109375 -1.878906 5.695312 -0.910156 5.21875 0.203125 L 5.015625 0.203125 L 0.4375 -10.4375 L 1.734375 -10.4375 Z M 5.609375 -1.296875 "/></g></g></g><g fill="#000000" fill-opacity="1"><g transform="translate(64.462908, 25.403416)"><g><path d="M 9.03125 0 L 7.75 0 C 7.707031 -0.113281 7.632812 -0.3125 7.53125 -0.59375 C 7.4375 -0.882812 7.320312 -1.222656 7.1875 -1.609375 C 7.050781 -1.992188 6.898438 -2.410156 6.734375 -2.859375 C 6.578125 -3.316406 6.421875 -3.773438 6.265625 -4.234375 L 2.5625 -4.234375 L 2.0625 -2.9375 C 2 -2.78125 1.921875 -2.582031 1.828125 -2.34375 C 1.742188 -2.113281 1.65625 -1.863281 1.5625 -1.59375 C 1.476562 -1.320312 1.398438 -1.046875 1.328125 -0.765625 C 1.253906 -0.484375 1.1875 -0.226562 1.125 0 L 0.578125 0 C 0.671875 -0.1875 0.789062 -0.441406 0.9375 -0.765625 C 1.082031 -1.085938 1.242188 -1.460938 1.421875 -1.890625 C 1.597656 -2.328125 1.785156 -2.796875 1.984375 -3.296875 C 2.179688 -3.796875 2.378906 -4.304688 2.578125 -4.828125 L 3.84375 -8.21875 C 3.976562 -8.5625 4.113281 -8.921875 4.25 -9.296875 C 4.394531 -9.671875 4.539062 -10.050781 4.6875 -10.4375 L 5.03125 -10.4375 Z M 4.40625 -9.171875 L 2.625 -4.40625 L 6.1875 -4.40625 Z M 4.40625 -9.171875 "/></g></g></g><g fill="#000000" fill-opacity="1"><g transform="translate(76.093986, 25.403416)"><g><path d="M 4.1875 0 L 4.1875 -10.265625 L 3.21875 -10.265625 C 2.75 -10.265625 2.347656 -10.242188 2.015625 -10.203125 C 1.691406 -10.171875 1.414062 -10.125 1.1875 -10.0625 C 0.957031 -10 0.765625 -9.929688 0.609375 -9.859375 C 0.460938 -9.785156 0.335938 -9.71875 0.234375 -9.65625 L 0.28125 -10.4375 L 9.328125 -10.4375 L 9.375 -9.65625 C 9.269531 -9.71875 9.140625 -9.785156 8.984375 -9.859375 C 8.835938 -9.929688 8.648438 -10 8.421875 -10.0625 C 8.191406 -10.125 7.914062 -10.171875 7.59375 -10.203125 C 7.269531 -10.242188 6.867188 -10.265625 6.390625 -10.265625 L 5.40625 -10.265625 L 5.40625 0 Z M 4.1875 0 "/></g></g></g><g fill="#000000" fill-opacity="1"><g transform="translate(87.710633, 25.403416)"><g><path d="M 3.453125 -0.171875 C 3.796875 -0.171875 4.175781 -0.175781 4.59375 -0.1875 C 5.007812 -0.207031 5.429688 -0.238281 5.859375 -0.28125 C 6.285156 -0.320312 6.695312 -0.390625 7.09375 -0.484375 C 7.5 -0.578125 7.875 -0.703125 8.21875 -0.859375 L 8.0625 0 L 1.296875 0 L 1.296875 -10.4375 L 7.859375 -10.4375 L 7.890625 -9.65625 C 7.398438 -9.945312 6.84375 -10.117188 6.21875 -10.171875 C 5.59375 -10.234375 4.894531 -10.265625 4.125 -10.265625 L 2.53125 -10.265625 L 2.53125 -5.5625 L 3.5 -5.5625 C 3.71875 -5.5625 3.96875 -5.566406 4.25 -5.578125 C 4.53125 -5.597656 4.804688 -5.613281 5.078125 -5.625 C 5.359375 -5.644531 5.609375 -5.671875 5.828125 -5.703125 C 6.054688 -5.734375 6.226562 -5.757812 6.34375 -5.78125 L 6.34375 -5.203125 C 6.226562 -5.210938 6.054688 -5.226562 5.828125 -5.25 C 5.609375 -5.269531 5.359375 -5.289062 5.078125 -5.3125 C 4.804688 -5.332031 4.53125 -5.347656 4.25 -5.359375 C 3.96875 -5.378906 3.71875 -5.390625 3.5 -5.390625 L 2.53125 -5.390625 L 2.53125 -0.171875 Z M 3.453125 -0.171875 "/></g></g></g><g mask="url(#0943d223be)"><g transform="matrix(1, 0, 0, 1, 29, 29)"><g clip-path="url(#e974d2cfeb)"><g clip-path="url(#89133f4f98)"><path stroke-linecap="butt" transform="matrix(0.740132, 0, 0, 0.740132, 1.134717, 0.276748)" fill="none" stroke-linejoin="miter" d="M -0.00257376 0.502194 L 19.546316 0.502194 " stroke="#545454" stroke-width="1" stroke-opacity="1" stroke-miterlimit="4"/></g></g></g></g><g mask="url(#c1f5f7ed8c)"><g transform="matrix(1, 0, 0, 1, 70, 28)"><g clip-path="url(#4ba98bec60)"><g clip-path="url(#232b60cb47)"><path stroke-linecap="butt" transform="matrix(0.740132, 0, 0, 0.740132, 1.262602, 1.035728)" fill="none" stroke-linejoin="miter" d="M -0.00119396 0.500616 L 19.547696 0.500616 " stroke="#545454" stroke-width="1" stroke-opacity="1" stroke-miterlimit="4"/></g></g></g></g><g fill="#4e4a4b" fill-opacity="1"><g transform="translate(46.047433, 31.889119)"><g><path d="M 0.09375 -0.578125 C 0.09375 -0.535156 0.0703125 -0.492188 0.03125 -0.453125 C 0 -0.421875 -0.046875 -0.40625 -0.109375 -0.40625 C -0.171875 -0.40625 -0.21875 -0.414062 -0.25 -0.4375 L -0.25 -0.421875 C -0.25 -0.328125 -0.195312 -0.242188 -0.09375 -0.171875 C 0.0195312 -0.109375 0.15625 -0.078125 0.3125 -0.078125 C 0.476562 -0.078125 0.628906 -0.101562 0.765625 -0.15625 C 0.898438 -0.207031 1.03125 -0.28125 1.15625 -0.375 C 1.28125 -0.476562 1.394531 -0.59375 1.5 -0.71875 C 1.601562 -0.851562 1.707031 -0.992188 1.8125 -1.140625 C 1.914062 -1.296875 2.015625 -1.457031 2.109375 -1.625 L 2.46875 -2.203125 C 1.925781 -2.222656 1.488281 -2.332031 1.15625 -2.53125 C 0.800781 -2.726562 0.640625 -2.984375 0.671875 -3.296875 C 0.679688 -3.492188 0.75 -3.675781 0.875 -3.84375 C 1.007812 -4.019531 1.1875 -4.171875 1.40625 -4.296875 C 1.863281 -4.554688 2.40625 -4.6875 3.03125 -4.6875 C 3.28125 -4.6875 3.46875 -4.65625 3.59375 -4.59375 C 3.625 -4.570312 3.640625 -4.554688 3.640625 -4.546875 C 3.640625 -4.535156 3.628906 -4.53125 3.609375 -4.53125 C 3.585938 -4.53125 3.566406 -4.53125 3.546875 -4.53125 C 3.535156 -4.53125 3.507812 -4.535156 3.46875 -4.546875 C 3.3125 -4.585938 3.15625 -4.609375 3 -4.609375 C 2.84375 -4.609375 2.675781 -4.59375 2.5 -4.5625 C 2.332031 -4.53125 2.171875 -4.484375 2.015625 -4.421875 C 1.859375 -4.367188 1.710938 -4.300781 1.578125 -4.21875 C 1.441406 -4.144531 1.328125 -4.054688 1.234375 -3.953125 C 1.015625 -3.734375 0.898438 -3.492188 0.890625 -3.234375 C 0.867188 -3.003906 0.992188 -2.800781 1.265625 -2.625 C 1.578125 -2.414062 1.992188 -2.300781 2.515625 -2.28125 C 3.296875 -3.507812 4.003906 -4.265625 4.640625 -4.546875 C 4.847656 -4.640625 5.035156 -4.6875 5.203125 -4.6875 C 5.535156 -4.6875 5.695312 -4.546875 5.6875 -4.265625 C 5.675781 -4.023438 5.546875 -3.757812 5.296875 -3.46875 C 4.890625 -2.988281 4.363281 -2.632812 3.71875 -2.40625 C 3.5 -2.320312 3.269531 -2.265625 3.03125 -2.234375 L 2.640625 -1.65625 C 2.035156 -0.789062 1.457031 -0.265625 0.90625 -0.078125 C 0.738281 -0.0234375 0.578125 0 0.421875 0 C 0.273438 0 0.148438 -0.0078125 0.046875 -0.03125 C -0.046875 -0.0507812 -0.125 -0.0820312 -0.1875 -0.125 C -0.320312 -0.207031 -0.390625 -0.316406 -0.390625 -0.453125 C -0.390625 -0.585938 -0.320312 -0.675781 -0.1875 -0.71875 C -0.144531 -0.726562 -0.101562 -0.734375 -0.0625 -0.734375 C -0.03125 -0.734375 0 -0.71875 0.03125 -0.6875 C 0.0703125 -0.664062 0.09375 -0.628906 0.09375 -0.578125 Z M 3.09375 -2.328125 C 3.707031 -2.429688 4.265625 -2.695312 4.765625 -3.125 C 5.054688 -3.382812 5.269531 -3.648438 5.40625 -3.921875 C 5.539062 -4.210938 5.550781 -4.414062 5.4375 -4.53125 C 5.382812 -4.570312 5.304688 -4.59375 5.203125 -4.59375 C 5.097656 -4.59375 4.972656 -4.550781 4.828125 -4.46875 C 4.679688 -4.382812 4.53125 -4.257812 4.375 -4.09375 C 4.070312 -3.789062 3.722656 -3.320312 3.328125 -2.6875 C 3.191406 -2.488281 3.113281 -2.367188 3.09375 -2.328125 Z M 3.09375 -2.328125 "/></g></g></g><g fill="#4e4a4b" fill-opacity="1"><g transform="translate(49.929258, 31.889119)"><g><path d="M -0.265625 -0.203125 C -0.265625 -0.117188 -0.210938 -0.078125 -0.109375 -0.078125 C 0.0351562 -0.078125 0.195312 -0.132812 0.375 -0.25 C 0.738281 -0.5 1.125 -0.867188 1.53125 -1.359375 C 1.53125 -1.359375 1.78125 -1.660156 2.28125 -2.265625 C 2.394531 -2.253906 2.492188 -2.25 2.578125 -2.25 C 2.660156 -2.25 2.734375 -2.253906 2.796875 -2.265625 L 2.46875 -1.875 L 1.28125 -0.4375 C 1.207031 -0.34375 1.171875 -0.265625 1.171875 -0.203125 C 1.171875 -0.128906 1.222656 -0.09375 1.328125 -0.09375 C 1.429688 -0.09375 1.539062 -0.117188 1.65625 -0.171875 C 1.769531 -0.222656 1.882812 -0.289062 2 -0.375 C 2.113281 -0.46875 2.222656 -0.566406 2.328125 -0.671875 C 2.441406 -0.773438 2.546875 -0.875 2.640625 -0.96875 L 2.984375 -1.359375 L 3.046875 -1.296875 L 2.921875 -1.15625 C 2.859375 -1.082031 2.78125 -1 2.6875 -0.90625 L 2.375 -0.59375 C 1.945312 -0.195312 1.59375 0 1.3125 0 C 1.21875 0 1.140625 -0.0195312 1.078125 -0.0625 C 1.023438 -0.113281 1 -0.179688 1 -0.265625 C 0.988281 -0.429688 1.046875 -0.617188 1.171875 -0.828125 C 0.648438 -0.273438 0.210938 0 -0.140625 0 C -0.335938 0 -0.460938 -0.0664062 -0.515625 -0.203125 C -0.535156 -0.242188 -0.546875 -0.296875 -0.546875 -0.359375 C -0.546875 -0.421875 -0.53125 -0.492188 -0.5 -0.578125 C -0.46875 -0.671875 -0.421875 -0.765625 -0.359375 -0.859375 C -0.296875 -0.960938 -0.21875 -1.078125 -0.125 -1.203125 L 0.484375 -1.921875 C 0.578125 -2.035156 0.675781 -2.148438 0.78125 -2.265625 C 0.863281 -2.253906 0.929688 -2.25 0.984375 -2.25 L 1.109375 -2.25 C 1.203125 -2.25 1.257812 -2.253906 1.28125 -2.265625 C 1.019531 -1.972656 0.835938 -1.765625 0.734375 -1.640625 L 0.078125 -0.84375 C -0.160156 -0.570312 -0.273438 -0.359375 -0.265625 -0.203125 Z M -0.265625 -0.203125 "/></g></g></g><g fill="#4e4a4b" fill-opacity="1"><g transform="translate(52.892407, 31.889119)"><g><path d="M 1.765625 -3.015625 C 1.734375 -2.992188 1.695312 -2.972656 1.65625 -2.953125 C 1.613281 -2.929688 1.566406 -2.921875 1.515625 -2.921875 C 1.472656 -2.921875 1.429688 -2.941406 1.390625 -2.984375 C 1.359375 -3.023438 1.34375 -3.066406 1.34375 -3.109375 C 1.34375 -3.160156 1.347656 -3.207031 1.359375 -3.25 C 1.378906 -3.289062 1.40625 -3.320312 1.4375 -3.34375 C 1.5 -3.414062 1.566406 -3.453125 1.640625 -3.453125 C 1.722656 -3.453125 1.78125 -3.429688 1.8125 -3.390625 C 1.851562 -3.347656 1.875 -3.300781 1.875 -3.25 C 1.875 -3.195312 1.863281 -3.148438 1.84375 -3.109375 C 1.820312 -3.078125 1.796875 -3.046875 1.765625 -3.015625 Z M -0.359375 -0.1875 C -0.359375 -0.125 -0.289062 -0.09375 -0.15625 -0.09375 C -0.0195312 -0.09375 0.101562 -0.117188 0.21875 -0.171875 C 0.332031 -0.234375 0.445312 -0.304688 0.5625 -0.390625 C 0.6875 -0.484375 0.804688 -0.585938 0.921875 -0.703125 L 1.21875 -1 C 1.300781 -1.09375 1.375 -1.171875 1.4375 -1.234375 C 1.5 -1.304688 1.535156 -1.347656 1.546875 -1.359375 L 1.609375 -1.296875 C 1.585938 -1.273438 1.546875 -1.226562 1.484375 -1.15625 C 1.421875 -1.082031 1.34375 -1 1.25 -0.90625 C 1.15625 -0.8125 1.050781 -0.707031 0.9375 -0.59375 C 0.832031 -0.488281 0.71875 -0.390625 0.59375 -0.296875 C 0.300781 -0.0976562 0.046875 0 -0.171875 0 C -0.304688 0 -0.414062 -0.0195312 -0.5 -0.0625 C -0.582031 -0.113281 -0.625 -0.171875 -0.625 -0.234375 C -0.625 -0.304688 -0.613281 -0.363281 -0.59375 -0.40625 C -0.582031 -0.457031 -0.554688 -0.519531 -0.515625 -0.59375 C -0.484375 -0.664062 -0.4375 -0.75 -0.375 -0.84375 C -0.3125 -0.945312 -0.226562 -1.0625 -0.125 -1.1875 C -0.03125 -1.320312 0.0859375 -1.476562 0.234375 -1.65625 L 0.75 -2.265625 C 0.78125 -2.253906 0.835938 -2.25 0.921875 -2.25 L 1.078125 -2.25 C 1.128906 -2.25 1.175781 -2.253906 1.21875 -2.265625 C 0.476562 -1.378906 0.0625 -0.875 -0.03125 -0.75 C -0.125 -0.632812 -0.191406 -0.539062 -0.234375 -0.46875 C -0.316406 -0.351562 -0.359375 -0.257812 -0.359375 -0.1875 Z M -0.359375 -0.1875 "/></g></g></g><g fill="#4e4a4b" fill-opacity="1"><g transform="translate(54.405718, 31.889119)"><g><path d="M -0.328125 -0.1875 C -0.328125 -0.125 -0.273438 -0.09375 -0.171875 -0.09375 C -0.0664062 -0.09375 0.0351562 -0.113281 0.140625 -0.15625 C 0.253906 -0.207031 0.363281 -0.269531 0.46875 -0.34375 C 0.570312 -0.425781 0.675781 -0.515625 0.78125 -0.609375 C 0.882812 -0.703125 0.976562 -0.796875 1.0625 -0.890625 C 1.144531 -0.984375 1.222656 -1.070312 1.296875 -1.15625 L 1.46875 -1.359375 L 1.546875 -1.296875 L 1.375 -1.09375 C 0.75 -0.363281 0.222656 0 -0.203125 0 C -0.316406 0 -0.40625 -0.0195312 -0.46875 -0.0625 C -0.53125 -0.113281 -0.5625 -0.164062 -0.5625 -0.21875 C -0.5625 -0.28125 -0.554688 -0.328125 -0.546875 -0.359375 C -0.546875 -0.398438 -0.535156 -0.441406 -0.515625 -0.484375 C -0.503906 -0.535156 -0.476562 -0.59375 -0.4375 -0.65625 C -0.40625 -0.71875 -0.359375 -0.796875 -0.296875 -0.890625 L 0.21875 -1.640625 L 1.078125 -2.84375 L 0.8125 -2.84375 C 0.75 -2.84375 0.71875 -2.859375 0.71875 -2.890625 C 0.71875 -2.929688 0.757812 -2.953125 0.84375 -2.953125 L 1.140625 -2.953125 L 1.765625 -3.8125 C 1.921875 -3.789062 2.078125 -3.789062 2.234375 -3.8125 L 1.578125 -2.953125 L 2.453125 -2.953125 C 2.515625 -2.953125 2.546875 -2.929688 2.546875 -2.890625 C 2.546875 -2.859375 2.515625 -2.84375 2.453125 -2.84375 L 1.515625 -2.84375 L 0.125 -0.96875 C -0.113281 -0.632812 -0.25 -0.425781 -0.28125 -0.34375 C -0.3125 -0.269531 -0.328125 -0.21875 -0.328125 -0.1875 Z M -0.328125 -0.1875 "/></g></g></g><g fill="#4e4a4b" fill-opacity="1"><g transform="translate(55.852215, 31.889119)"><g><path d="M 1.28125 -0.28125 C 1.144531 -0.195312 0.992188 -0.125 0.828125 -0.0625 C 0.671875 -0.0078125 0.515625 0.015625 0.359375 0.015625 C 0.210938 0.015625 0.101562 0.00390625 0.03125 -0.015625 C -0.0390625 -0.046875 -0.101562 -0.09375 -0.15625 -0.15625 C -0.363281 -0.375 -0.363281 -0.707031 -0.15625 -1.15625 C -0.0625 -1.351562 0.0703125 -1.53125 0.25 -1.6875 C 0.4375 -1.851562 0.601562 -1.976562 0.75 -2.0625 C 1.019531 -2.207031 1.273438 -2.28125 1.515625 -2.28125 C 1.753906 -2.28125 1.878906 -2.207031 1.890625 -2.0625 C 1.898438 -1.832031 1.609375 -1.578125 1.015625 -1.296875 C 0.796875 -1.191406 0.519531 -1.082031 0.1875 -0.96875 C 0.0625 -0.757812 0 -0.585938 0 -0.453125 C 0 -0.316406 0.03125 -0.21875 0.09375 -0.15625 C 0.164062 -0.101562 0.269531 -0.078125 0.40625 -0.078125 C 0.539062 -0.078125 0.6875 -0.101562 0.84375 -0.15625 C 1 -0.21875 1.144531 -0.289062 1.28125 -0.375 C 1.414062 -0.46875 1.539062 -0.566406 1.65625 -0.671875 C 1.769531 -0.773438 1.867188 -0.875 1.953125 -0.96875 C 2.035156 -1.070312 2.101562 -1.15625 2.15625 -1.21875 C 2.21875 -1.289062 2.257812 -1.335938 2.28125 -1.359375 L 2.34375 -1.296875 C 2.3125 -1.273438 2.265625 -1.222656 2.203125 -1.140625 C 2.148438 -1.066406 2.078125 -0.984375 1.984375 -0.890625 C 1.898438 -0.796875 1.796875 -0.691406 1.671875 -0.578125 C 1.554688 -0.472656 1.425781 -0.375 1.28125 -0.28125 Z M 0.265625 -1.09375 C 0.941406 -1.320312 1.375 -1.554688 1.5625 -1.796875 C 1.632812 -1.867188 1.671875 -1.941406 1.671875 -2.015625 C 1.671875 -2.140625 1.609375 -2.203125 1.484375 -2.203125 C 1.285156 -2.203125 1.03125 -2.023438 0.71875 -1.671875 C 0.507812 -1.421875 0.359375 -1.226562 0.265625 -1.09375 Z M 0.265625 -1.09375 "/></g></g></g><g fill="#4e4a4b" fill-opacity="1"><g transform="translate(58.103806, 31.889119)"><g/></g></g><g fill="#4e4a4b" fill-opacity="1"><g transform="translate(60.452277, 31.889119)"><g><path d="M 0.09375 -0.578125 C 0.09375 -0.535156 0.0703125 -0.492188 0.03125 -0.453125 C 0 -0.421875 -0.046875 -0.40625 -0.109375 -0.40625 C -0.171875 -0.40625 -0.21875 -0.414062 -0.25 -0.4375 L -0.25 -0.421875 C -0.25 -0.328125 -0.195312 -0.242188 -0.09375 -0.171875 C 0.0195312 -0.109375 0.15625 -0.078125 0.3125 -0.078125 C 0.476562 -0.078125 0.628906 -0.101562 0.765625 -0.15625 C 0.898438 -0.207031 1.03125 -0.28125 1.15625 -0.375 C 1.28125 -0.476562 1.394531 -0.59375 1.5 -0.71875 C 1.601562 -0.851562 1.707031 -0.992188 1.8125 -1.140625 C 1.914062 -1.296875 2.015625 -1.457031 2.109375 -1.625 L 2.46875 -2.203125 C 1.925781 -2.222656 1.488281 -2.332031 1.15625 -2.53125 C 0.800781 -2.726562 0.640625 -2.984375 0.671875 -3.296875 C 0.679688 -3.492188 0.75 -3.675781 0.875 -3.84375 C 1.007812 -4.019531 1.1875 -4.171875 1.40625 -4.296875 C 1.863281 -4.554688 2.40625 -4.6875 3.03125 -4.6875 C 3.28125 -4.6875 3.46875 -4.65625 3.59375 -4.59375 C 3.625 -4.570312 3.640625 -4.554688 3.640625 -4.546875 C 3.640625 -4.535156 3.628906 -4.53125 3.609375 -4.53125 C 3.585938 -4.53125 3.566406 -4.53125 3.546875 -4.53125 C 3.535156 -4.53125 3.507812 -4.535156 3.46875 -4.546875 C 3.3125 -4.585938 3.15625 -4.609375 3 -4.609375 C 2.84375 -4.609375 2.675781 -4.59375 2.5 -4.5625 C 2.332031 -4.53125 2.171875 -4.484375 2.015625 -4.421875 C 1.859375 -4.367188 1.710938 -4.300781 1.578125 -4.21875 C 1.441406 -4.144531 1.328125 -4.054688 1.234375 -3.953125 C 1.015625 -3.734375 0.898438 -3.492188 0.890625 -3.234375 C 0.867188 -3.003906 0.992188 -2.800781 1.265625 -2.625 C 1.578125 -2.414062 1.992188 -2.300781 2.515625 -2.28125 C 3.296875 -3.507812 4.003906 -4.265625 4.640625 -4.546875 C 4.847656 -4.640625 5.035156 -4.6875 5.203125 -4.6875 C 5.535156 -4.6875 5.695312 -4.546875 5.6875 -4.265625 C 5.675781 -4.023438 5.546875 -3.757812 5.296875 -3.46875 C 4.890625 -2.988281 4.363281 -2.632812 3.71875 -2.40625 C 3.5 -2.320312 3.269531 -2.265625 3.03125 -2.234375 L 2.640625 -1.65625 C 2.035156 -0.789062 1.457031 -0.265625 0.90625 -0.078125 C 0.738281 -0.0234375 0.578125 0 0.421875 0 C 0.273438 0 0.148438 -0.0078125 0.046875 -0.03125 C -0.046875 -0.0507812 -0.125 -0.0820312 -0.1875 -0.125 C -0.320312 -0.207031 -0.390625 -0.316406 -0.390625 -0.453125 C -0.390625 -0.585938 -0.320312 -0.675781 -0.1875 -0.71875 C -0.144531 -0.726562 -0.101562 -0.734375 -0.0625 -0.734375 C -0.03125 -0.734375 0 -0.71875 0.03125 -0.6875 C 0.0703125 -0.664062 0.09375 -0.628906 0.09375 -0.578125 Z M 3.09375 -2.328125 C 3.707031 -2.429688 4.265625 -2.695312 4.765625 -3.125 C 5.054688 -3.382812 5.269531 -3.648438 5.40625 -3.921875 C 5.539062 -4.210938 5.550781 -4.414062 5.4375 -4.53125 C 5.382812 -4.570312 5.304688 -4.59375 5.203125 -4.59375 C 5.097656 -4.59375 4.972656 -4.550781 4.828125 -4.46875 C 4.679688 -4.382812 4.53125 -4.257812 4.375 -4.09375 C 4.070312 -3.789062 3.722656 -3.320312 3.328125 -2.6875 C 3.191406 -2.488281 3.113281 -2.367188 3.09375 -2.328125 Z M 3.09375 -2.328125 "/></g></g></g><g fill="#4e4a4b" fill-opacity="1"><g transform="translate(64.334102, 31.889119)"><g><path d="M 1.21875 0 C 0.96875 0 0.84375 -0.109375 0.84375 -0.328125 C 0.84375 -0.660156 1.207031 -1.09375 1.9375 -1.625 C 2.1875 -1.8125 2.328125 -1.945312 2.359375 -2.03125 C 2.367188 -2.050781 2.375 -2.070312 2.375 -2.09375 C 2.375 -2.125 2.359375 -2.148438 2.328125 -2.171875 C 2.304688 -2.191406 2.257812 -2.203125 2.1875 -2.203125 C 1.832031 -2.203125 1.289062 -1.859375 0.5625 -1.171875 C 0.21875 -0.847656 -0.0195312 -0.613281 -0.15625 -0.46875 L -0.515625 -0.0625 C -0.609375 0.0625 -0.710938 0.203125 -0.828125 0.359375 L -1.5 1.390625 L -2.015625 2.1875 C -2.066406 2.269531 -2.097656 2.320312 -2.109375 2.34375 C -2.171875 2.363281 -2.242188 2.375 -2.328125 2.375 C -2.410156 2.375 -2.460938 2.367188 -2.484375 2.359375 C -2.503906 2.359375 -2.523438 2.359375 -2.546875 2.359375 C -2.585938 2.359375 -2.628906 2.351562 -2.671875 2.34375 L -0.96875 0.015625 L 0.125 -1.5 L 1.4375 -3.265625 C 1.5625 -3.253906 1.648438 -3.25 1.703125 -3.25 C 1.816406 -3.25 1.894531 -3.253906 1.9375 -3.265625 L 0.859375 -1.953125 L 0.0625 -0.890625 L 0.09375 -0.859375 C 0.789062 -1.523438 1.300781 -1.945312 1.625 -2.125 C 1.789062 -2.207031 1.914062 -2.253906 2 -2.265625 C 2.082031 -2.273438 2.160156 -2.28125 2.234375 -2.28125 C 2.441406 -2.28125 2.546875 -2.191406 2.546875 -2.015625 C 2.546875 -1.648438 2.210938 -1.234375 1.546875 -0.765625 C 1.242188 -0.546875 1.070312 -0.394531 1.03125 -0.3125 C 1.019531 -0.289062 1.015625 -0.265625 1.015625 -0.234375 C 1.015625 -0.140625 1.09375 -0.09375 1.25 -0.09375 C 1.632812 -0.09375 2.125 -0.445312 2.71875 -1.15625 L 2.890625 -1.359375 L 2.96875 -1.296875 L 2.796875 -1.09375 C 2.171875 -0.363281 1.644531 0 1.21875 0 Z M 1.21875 0 "/></g></g></g><g fill="#4e4a4b" fill-opacity="1"><g transform="translate(67.200371, 31.889119)"><g><path d="M 1.328125 0 C 1.109375 0 1 -0.0664062 1 -0.203125 C 1 -0.316406 1.0625 -0.457031 1.1875 -0.625 L 1.40625 -0.890625 L 1.375 -0.90625 C 1 -0.445312 0.644531 -0.160156 0.3125 -0.046875 C 0.21875 -0.015625 0.140625 0 0.078125 0 C -0.203125 0 -0.34375 -0.144531 -0.34375 -0.4375 C -0.34375 -0.78125 -0.203125 -1.101562 0.078125 -1.40625 C 0.484375 -1.882812 0.890625 -2.164062 1.296875 -2.25 C 1.421875 -2.269531 1.523438 -2.28125 1.609375 -2.28125 C 1.691406 -2.28125 1.757812 -2.273438 1.8125 -2.265625 C 1.863281 -2.253906 1.910156 -2.238281 1.953125 -2.21875 C 2.023438 -2.164062 2.0625 -2.101562 2.0625 -2.03125 C 2.0625 -1.957031 2.050781 -1.882812 2.03125 -1.8125 L 2.359375 -2.21875 C 2.421875 -2.207031 2.472656 -2.203125 2.515625 -2.203125 C 2.648438 -2.203125 2.75 -2.203125 2.8125 -2.203125 L 1.6875 -0.859375 C 1.414062 -0.546875 1.28125 -0.320312 1.28125 -0.1875 C 1.28125 -0.125 1.320312 -0.09375 1.40625 -0.09375 C 1.488281 -0.09375 1.582031 -0.113281 1.6875 -0.15625 C 1.800781 -0.207031 1.910156 -0.273438 2.015625 -0.359375 C 2.128906 -0.441406 2.238281 -0.53125 2.34375 -0.625 C 2.445312 -0.726562 2.539062 -0.828125 2.625 -0.921875 C 2.71875 -1.015625 2.796875 -1.097656 2.859375 -1.171875 L 3.03125 -1.359375 L 3.09375 -1.296875 L 2.921875 -1.109375 C 2.285156 -0.367188 1.753906 0 1.328125 0 Z M 0.40625 -1.203125 C 0.09375 -0.816406 -0.0625 -0.503906 -0.0625 -0.265625 C -0.0625 -0.148438 -0.0078125 -0.09375 0.09375 -0.09375 C 0.414062 -0.09375 0.882812 -0.453125 1.5 -1.171875 L 1.78125 -1.515625 C 1.90625 -1.710938 1.96875 -1.859375 1.96875 -1.953125 C 1.96875 -2.109375 1.890625 -2.1875 1.734375 -2.1875 C 1.523438 -2.1875 1.222656 -2.003906 0.828125 -1.640625 C 0.691406 -1.515625 0.550781 -1.367188 0.40625 -1.203125 Z M 0.40625 -1.203125 "/></g></g></g></svg>